<?xml version="1.0" standalone="no"?>
<!DOCTYPE svg PUBLIC "-//W3C//DTD SVG 20010904//EN"
 "http://www.w3.org/TR/2001/REC-SVG-20010904/DTD/svg10.dtd">
<svg version="1.0" xmlns="http://www.w3.org/2000/svg"
 width="512.000000pt" height="512.000000pt" viewBox="0 0 512.000000 512.000000"
 preserveAspectRatio="xMidYMid meet">
<metadata>
Created by potrace 1.11, written by Peter Selinger 2001-2013
</metadata>
<g transform="translate(0.000000,512.000000) scale(0.100000,-0.100000)"
fill="#000000" stroke="none">
<path d="M2429 4536 c-2 -2 -42 -7 -89 -11 -46 -3 -87 -8 -91 -10 -3 -3 -26
-7 -50 -10 -64 -8 -249 -61 -351 -100 -77 -30 -131 -55 -262 -123 -103 -53
-272 -179 -385 -287 -324 -309 -539 -721 -597 -1145 -3 -25 -8 -54 -11 -65 -8
-38 -10 -340 -2 -410 15 -139 21 -172 50 -292 100 -410 342 -789 674 -1058
188 -152 453 -296 645 -351 99 -28 257 -64 305 -70 33 -3 64 -8 68 -11 15 -9
350 -11 422 -2 137 17 158 20 263 45 361 84 723 294 977 565 103 110 124 137
199 247 79 116 157 262 204 382 32 82 81 235 88 278 3 15 7 33 10 41 2 8 7 30
10 50 3 20 7 47 9 61 20 117 26 358 13 496 -31 319 -145 634 -329 909 -253
377 -644 665 -1074 790 -100 29 -196 51 -271 61 -27 3 -58 8 -69 11 -24 5
-351 13 -356 9z m366 -117 c629 -78 1188 -484 1460 -1061 174 -370 220 -755
140 -1183 -36 -194 -150 -464 -271 -646 -355 -531 -934 -842 -1564 -841 -437
1 -844 145 -1180 418 -81 65 -223 208 -288 290 -264 332 -418 784 -406 1194 5
170 17 262 54 411 135 547 499 999 1002 1244 72 35 134 63 158 69 3 1 41 14
85 28 131 44 192 58 350 78 149 19 306 19 460 -1z"/>
<path d="M2687 3298 c-10 -6 -17 -871 -7 -888 3 -5 29 -10 58 -12 l52 -4 0
203 0 203 191 0 c105 0 189 3 187 8 -1 4 -14 26 -28 49 l-25 43 -163 0 -163 0
3 153 3 152 198 0 c108 0 197 3 197 6 0 10 -52 89 -59 90 -37 4 -436 2 -444
-3z"/>
<path d="M2439 3010 c-1 -3 -2 -206 -3 -452 -1 -396 0 -448 14 -449 8 0 136
-1 285 -1 l270 0 0 118 0 119 -35 30 c-19 16 -41 36 -48 43 -7 6 -14 12 -15
12 -1 0 -1 -49 0 -110 2 -98 1 -110 -15 -111 -9 -1 -90 -2 -179 -3 -138 -1
-162 1 -165 14 -2 8 -4 167 -3 353 l0 337 -52 52 c-29 29 -54 50 -54 48z"/>
<path d="M2170 2310 c0 -293 3 -450 10 -451 6 0 120 0 255 0 135 0 247 0 250
0 10 1 -54 88 -67 93 -7 3 -85 4 -174 4 l-161 -1 -1 350 c0 192 -1 357 -1 366
-1 14 -35 42 -98 82 -10 6 -13 -81 -13 -443z"/>
<path d="M1923 2020 l0 -450 260 0 259 0 -18 28 c-50 78 -30 71 -221 72 l-172
0 1 361 1 361 -49 39 c-27 21 -52 39 -55 39 -4 0 -6 -202 -6 -450z"/>
</g>
</svg>
